<svg width="120" height="120" viewBox="0 0 120 120" fill="none" xmlns="http://www.w3.org/2000/svg">
  <!-- Background stars -->
  <circle cx="20" cy="15" r="1" fill="#FFFFFF" opacity="0.8"/>
  <circle cx="35" cy="25" r="0.8" fill="#FFFFFF" opacity="0.6"/>
  <circle cx="50" cy="10" r="1.2" fill="#FFFFFF" opacity="0.7"/>
  <circle cx="65" cy="20" r="0.9" fill="#FFFFFF" opacity="0.5"/>
  <circle cx="80" cy="12" r="1" fill="#FFFFFF" opacity="0.8"/>
  <circle cx="95" cy="28" r="0.7" fill="#FFFFFF" opacity="0.6"/>
  <circle cx="15" cy="40" r="1" fill="#FFFFFF" opacity="0.5"/>
  <circle cx="45" cy="35" r="0.8" fill="#FFFFFF" opacity="0.7"/>
  <circle cx="70" cy="45" r="1.1" fill="#FFFFFF" opacity="0.6"/>
  <circle cx="90" cy="50" r="0.9" fill="#FFFFFF" opacity="0.8"/>
  
  <!-- Large stars/celestial bodies in upper right -->
  <g opacity="0.9">
    <circle cx="85" cy="25" r="4" fill="#332D2B" stroke="#46413F" strokeWidth="0.5"/>
    <circle cx="85" cy="25" r="2" fill="#3B82F6" opacity="0.3"/>
    <circle cx="85" cy="25" r="1" fill="#FCD34D" opacity="0.4"/>
    
    <circle cx="95" cy="18" r="3.5" fill="#332D2B" stroke="#46413F" strokeWidth="0.5"/>
    <circle cx="95" cy="18" r="1.5" fill="#3B82F6" opacity="0.3"/>
    
    <circle cx="100" cy="30" r="3" fill="#332D2B" stroke="#46413F" strokeWidth="0.5"/>
    <circle cx="100" cy="30" r="1.5" fill="#FCD34D" opacity="0.3"/>
    
    <circle cx="88" cy="35" r="2.5" fill="#332D2B" stroke="#46413F" strokeWidth="0.5"/>
    <circle cx="88" cy="35" r="1" fill="#3B82F6" opacity="0.3"/>
  </g>
  
  <!-- Silhouette of person reaching up -->
  <g transform="translate(20, 60)">
    <!-- Head -->
    <ellipse cx="15" cy="5" rx="4" ry="5" fill="#1A1412"/>
    <!-- Body -->
    <ellipse cx="15" cy="20" rx="6" ry="12" fill="#1A1412"/>
    <!-- Right arm (reaching up) -->
    <ellipse cx="22" cy="8" rx="2" ry="10" fill="#1A1412" transform="rotate(45 22 8)"/>
    <!-- Left arm (down) -->
    <ellipse cx="8" cy="15" rx="2" ry="8" fill="#1A1412" transform="rotate(-30 8 15)"/>
    <!-- Legs -->
    <ellipse cx="12" cy="32" rx="2.5" ry="8" fill="#1A1412" transform="rotate(-10 12 32)"/>
    <ellipse cx="18" cy="32" rx="2.5" ry="8" fill="#1A1412" transform="rotate(10 18 32)"/>
  </g>
</svg>
